<?xml version="1.0" encoding="utf-8"?>
<!-- Generator: Adobe Illustrator 19.0.0, SVG Export Plug-In . SVG Version: 6.00 Build 0)  -->
<svg version="1.1" id="Layer_1" xmlns="http://www.w3.org/2000/svg" xmlns:xlink="http://www.w3.org/1999/xlink" x="0px" y="0px"
	 viewBox="0 0 1400 980" style="enable-background:new 0 0 1400 980;" xml:space="preserve">
<style type="text/css">
	.st0{fill:#A8E2EF;}
	.st1{fill:#FAAF40;}
	.st2{fill:#FFFFFF;}
	.st3{fill:#72768F;}
	.st4{fill:#207175;}
	.st5{fill:#267E87;}
	.st6{fill:#308E9E;}
	.st7{fill:#A8B3CE;}
	.st8{clip-path:url(#SVGID_2_);}
	.st9{fill:#7F5820;}
	.st10{fill:#926928;}
	.st11{fill:#545D7B;}
	.st12{fill:#434960;}
	.st13{fill:#1B3663;}
	.st14{fill:#E0AA25;}
	.st15{fill:#DF8926;}
	.st16{fill:#131D42;}
	.st17{fill:#E1BA23;}
	.st18{fill:#E1CA20;}
	.st19{fill:#6B7295;}
	.st20{fill:#E19A26;}
	.st21{fill:#1A305B;}
	.st22{fill:#B4BFD6;}
	.st23{fill:#AA3124;}
	.st24{fill:#C13E33;}
	.st25{fill:#DEE8F5;}
	.st26{fill:#6BA152;}
	.st27{fill:#F2E3C4;}
	.st28{fill:#D86E66;}
	.st29{fill:#F39B3A;}
	.st30{clip-path:url(#SVGID_4_);}
	.st31{clip-path:url(#SVGID_4_);fill:#545D7B;}
</style>
<g>
	<rect x="0" class="st0" width="1400" height="572.8"/>
	<g>
		<circle class="st1" cx="775.8" cy="148" r="68"/>
		<path class="st2" d="M666.5,230.7h395.8l-59.4-10.1c0,0-30.3-25.8-49.3-7.8c0,0-29.1-28-38.1-11.2c0,0-1.1-38.1-21.3-28
			c0,0,4.5-59.4-39.2-43.7c0,0-42.6,7.5-39.2,49.1c0,0-15.7-20.4-16.8,0c0,0-35.9-15.5-38.1,23.7c0,0-23.5-3.4-20.2,12.3
			c0,0-23.5-10.1-26.9,6.7L666.5,230.7z"/>
	</g>
	<rect x="48.1" y="487.5" class="st3" width="1351.9" height="478.1"/>
	<g>
		<rect x="469.6" y="477.8" class="st4" width="923.6" height="60.6"/>
		<polygon class="st5" points="1296.7,383.7 1327.5,383.7 1358.3,383.7 1400,425.5 1400,431.6 1393.2,431.6 1393.2,538.5 
			1327.5,538.5 1261.8,538.5 1261.8,431.6 1254.9,431.6 1254.9,425.5 		"/>
		<polygon class="st5" points="981.1,383.7 1011.8,383.7 1042.6,383.7 1084.4,425.5 1084.4,431.6 1077.5,431.6 1077.5,538.5 
			1011.8,538.5 946.2,538.5 946.2,431.6 939.3,431.6 939.3,425.5 		"/>
		<polygon class="st5" points="810.7,353.7 847.5,353.7 884.2,353.7 934.1,403.5 934.1,410.9 925.9,410.9 925.9,538.5 847.5,538.5 
			769,538.5 769,410.9 760.8,410.9 760.8,403.5 		"/>
		<polygon class="st5" points="496.9,419.5 521.1,419.5 545.2,419.5 577.9,452.2 577.9,457.1 572.5,457.1 572.5,540.8 521.1,540.8 
			469.6,540.8 469.6,457.1 464.2,457.1 464.2,452.2 		"/>
		<rect x="1040.2" y="353.7" class="st6" width="183.4" height="63.5"/>
		<rect x="1055" y="409.1" class="st6" width="154" height="129.4"/>
		<rect x="1197.1" y="468.4" class="st6" width="106.8" height="70"/>
		<rect x="1292.1" y="503.4" class="st6" width="70.8" height="35"/>
		<rect x="747.9" y="226.7" class="st6" width="124.7" height="314.1"/>
		<rect x="559.5" y="247.2" class="st6" width="197.1" height="293.6"/>
		<rect x="1055" y="417.2" class="st5" width="154" height="8.9"/>
		<rect x="1067.6" y="328.6" class="st5" width="22.6" height="62.6"/>
		<g>
			<rect x="1160.2" y="441.8" class="st5" width="33" height="26.6"/>
			<rect x="1115.4" y="441.8" class="st5" width="33" height="26.6"/>
			<rect x="1070.7" y="441.8" class="st5" width="33" height="26.6"/>
		</g>
		<g>
			<g>
				<rect x="677.4" y="284.7" class="st5" width="33" height="26.6"/>
				<rect x="632.7" y="284.7" class="st5" width="33" height="26.6"/>
				<rect x="587.9" y="284.7" class="st5" width="33" height="26.6"/>
			</g>
			<g>
				<rect x="677.4" y="325.5" class="st5" width="33" height="26.6"/>
				<rect x="632.7" y="325.5" class="st5" width="33" height="26.6"/>
				<rect x="587.9" y="325.5" class="st5" width="33" height="26.6"/>
			</g>
		</g>
		<g>
			<g>
				<rect x="677.4" y="400.1" class="st5" width="33" height="26.6"/>
				<rect x="632.7" y="400.1" class="st5" width="33" height="26.6"/>
				<rect x="587.9" y="400.1" class="st5" width="33" height="26.6"/>
			</g>
			<g>
				<rect x="677.4" y="440.9" class="st5" width="33" height="26.6"/>
				<rect x="632.7" y="440.9" class="st5" width="33" height="26.6"/>
				<rect x="587.9" y="440.9" class="st5" width="33" height="26.6"/>
			</g>
		</g>
		<rect x="1208.9" y="482.9" class="st5" width="83.1" height="55.6"/>
		<rect x="967" y="441.8" class="st6" width="73.2" height="32"/>
		<rect x="1326.3" y="441.8" class="st6" width="36.6" height="32"/>
		<rect x="550.3" y="372" class="st5" width="197.8" height="7.5"/>
		<rect x="550.3" y="243.4" class="st5" width="197.8" height="10.6"/>
		<polygon class="st5" points="748,243.4 748,540.8 723.3,540.8 		"/>
		<polygon class="st4" points="559.5,433.9 559.5,540.8 541.1,540.8 		"/>
		<polygon class="st4" points="1055,417.2 1040.2,538.5 1055,538.5 		"/>
		<polygon class="st4" points="1292.1,482.9 1283.2,538.5 1292.1,538.5 		"/>
		<rect x="587.9" y="494.9" class="st5" width="122.5" height="45.9"/>
	</g>
	<rect x="424.2" y="188" class="st7" width="975.8" height="15.5"/>
	<g>
		<defs>
			<rect id="SVGID_1_" x="424.2" y="200.9" width="975.8" height="485.2"/>
		</defs>
		<clipPath id="SVGID_2_">
			<use xlink:href="#SVGID_1_"  style="overflow:visible;"/>
		</clipPath>
		<g class="st8">
			<g>
				
					<rect x="-454.3" y="437.3" transform="matrix(0.7071 0.7071 -0.7071 0.7071 279.2075 209.3129)" class="st7" width="682.4" height="8.7"/>
				
					<rect x="-384.2" y="437.3" transform="matrix(0.7071 0.7071 -0.7071 0.7071 299.7132 159.8078)" class="st7" width="682.4" height="8.7"/>
				
					<rect x="-314.2" y="437.3" transform="matrix(0.7071 0.7071 -0.7071 0.7071 320.2187 110.3026)" class="st7" width="682.4" height="8.7"/>
				
					<rect x="-244.2" y="437.3" transform="matrix(0.7071 0.7071 -0.7071 0.7071 340.7245 60.7978)" class="st7" width="682.4" height="8.7"/>
				
					<rect x="-174.2" y="437.3" transform="matrix(0.7071 0.7071 -0.7071 0.7071 361.2301 11.2928)" class="st7" width="682.4" height="8.7"/>
				
					<rect x="-104.2" y="437.3" transform="matrix(0.7071 0.7071 -0.7071 0.7071 381.7358 -38.2122)" class="st7" width="682.4" height="8.7"/>
				
					<rect x="-34.2" y="437.3" transform="matrix(0.7071 0.7071 -0.7071 0.7071 402.2412 -87.7174)" class="st7" width="682.4" height="8.7"/>
				
					<rect x="35.8" y="437.3" transform="matrix(0.7071 0.7071 -0.7071 0.7071 422.7471 -137.2221)" class="st7" width="682.4" height="8.7"/>
				
					<rect x="105.8" y="437.3" transform="matrix(0.7071 0.7071 -0.7071 0.7071 443.2527 -186.7272)" class="st7" width="682.4" height="8.7"/>
				
					<rect x="175.8" y="437.3" transform="matrix(0.7071 0.7071 -0.7071 0.7071 463.7586 -236.2318)" class="st7" width="682.4" height="8.7"/>
				
					<rect x="245.9" y="437.3" transform="matrix(0.7071 0.7071 -0.7071 0.7071 484.2637 -285.7372)" class="st7" width="682.4" height="8.7"/>
				
					<rect x="315.9" y="437.3" transform="matrix(0.7071 0.7071 -0.7071 0.7071 504.7701 -335.242)" class="st7" width="682.4" height="8.7"/>
				
					<rect x="385.9" y="437.3" transform="matrix(0.7071 0.7071 -0.7071 0.7071 525.2747 -384.7472)" class="st7" width="682.4" height="8.7"/>
				
					<rect x="455.9" y="437.3" transform="matrix(0.7071 0.7071 -0.7071 0.7071 545.7809 -434.252)" class="st7" width="682.4" height="8.7"/>
				
					<rect x="525.9" y="437.3" transform="matrix(0.7071 0.7071 -0.7071 0.7071 566.2867 -483.7571)" class="st7" width="682.4" height="8.7"/>
				
					<rect x="595.9" y="437.3" transform="matrix(0.7071 0.7071 -0.7071 0.7071 586.7922 -533.2621)" class="st7" width="682.4" height="8.7"/>
				
					<rect x="665.9" y="437.3" transform="matrix(0.7071 0.7071 -0.7071 0.7071 607.2983 -582.7671)" class="st7" width="682.4" height="8.7"/>
				
					<rect x="735.9" y="437.3" transform="matrix(0.7071 0.7071 -0.7071 0.7071 627.8029 -632.2717)" class="st7" width="682.4" height="8.7"/>
				
					<rect x="805.9" y="437.3" transform="matrix(0.7071 0.7071 -0.7071 0.7071 648.3087 -681.7768)" class="st7" width="682.4" height="8.7"/>
				
					<rect x="875.9" y="437.3" transform="matrix(0.7071 0.7071 -0.7071 0.7071 668.8143 -731.2819)" class="st7" width="682.4" height="8.7"/>
				
					<rect x="946" y="437.3" transform="matrix(0.7071 0.7071 -0.7071 0.7071 689.3199 -780.7866)" class="st7" width="682.4" height="8.7"/>
				
					<rect x="1016" y="437.3" transform="matrix(0.7071 0.7071 -0.7071 0.7071 709.8268 -830.2924)" class="st7" width="682.4" height="8.7"/>
				
					<rect x="1086" y="437.3" transform="matrix(0.7071 0.7071 -0.7071 0.7071 730.3312 -879.7964)" class="st7" width="682.4" height="8.7"/>
				
					<rect x="1156" y="437.3" transform="matrix(0.7071 0.7071 -0.7071 0.7071 750.8381 -929.3022)" class="st7" width="682.4" height="8.7"/>
				
					<rect x="1226" y="437.3" transform="matrix(0.7071 0.7071 -0.7071 0.7071 771.3425 -978.8066)" class="st7" width="682.4" height="8.7"/>
				
					<rect x="1296" y="437.3" transform="matrix(0.7071 0.7071 -0.7071 0.7071 791.848 -1028.3116)" class="st7" width="682.4" height="8.7"/>
				
					<rect x="1366" y="437.3" transform="matrix(0.7071 0.7071 -0.7071 0.7071 812.3551 -1077.8173)" class="st7" width="682.4" height="8.7"/>
				
					<rect x="1436" y="437.3" transform="matrix(0.7071 0.7071 -0.7071 0.7071 832.8594 -1127.3214)" class="st7" width="682.4" height="8.7"/>
				
					<rect x="1506" y="437.3" transform="matrix(0.7071 0.7071 -0.7071 0.7071 853.368 -1176.8281)" class="st7" width="682.4" height="8.7"/>
				
					<rect x="1576.1" y="437.3" transform="matrix(0.7071 0.7071 -0.7071 0.7071 873.8705 -1226.3313)" class="st7" width="682.4" height="8.7"/>
				
					<rect x="1646.1" y="437.3" transform="matrix(0.7071 0.7071 -0.7071 0.7071 894.3762 -1275.8363)" class="st7" width="682.4" height="8.7"/>
				
					<rect x="1716.1" y="437.3" transform="matrix(0.7071 0.7071 -0.7071 0.7071 914.8819 -1325.3414)" class="st7" width="682.4" height="8.7"/>
			</g>
			<g>
				
					<rect x="1716.1" y="437.3" transform="matrix(-0.7071 -0.7071 0.7071 -0.7071 3199.658 2208.718)" class="st7" width="682.4" height="8.7"/>
				
					<rect x="1646.1" y="437.3" transform="matrix(-0.7071 -0.7071 0.7071 -0.7071 3080.1423 2159.2129)" class="st7" width="682.4" height="8.7"/>
				
					<rect x="1576.1" y="437.3" transform="matrix(-0.7071 -0.7071 0.7071 -0.7071 2960.6265 2109.7078)" class="st7" width="682.4" height="8.7"/>
				
					<rect x="1506" y="437.3" transform="matrix(-0.7071 -0.7071 0.7071 -0.7071 2841.1106 2060.2026)" class="st7" width="682.4" height="8.7"/>
				
					<rect x="1436" y="437.3" transform="matrix(-0.7071 -0.7071 0.7071 -0.7071 2721.594 2010.699)" class="st7" width="682.4" height="8.7"/>
				
					<rect x="1366" y="437.3" transform="matrix(-0.7071 -0.7071 0.7071 -0.7071 2602.0798 1961.1927)" class="st7" width="682.4" height="8.7"/>
				
					<rect x="1296" y="437.3" transform="matrix(-0.7071 -0.7071 0.7071 -0.7071 2482.5635 1911.6891)" class="st7" width="682.4" height="8.7"/>
				
					<rect x="1226" y="437.3" transform="matrix(-0.7071 -0.7071 0.7071 -0.7071 2363.0491 1862.183)" class="st7" width="682.4" height="8.7"/>
				
					<rect x="1156" y="437.3" transform="matrix(-0.7071 -0.7071 0.7071 -0.7071 2243.5332 1812.6781)" class="st7" width="682.4" height="8.7"/>
				
					<rect x="1086" y="437.3" transform="matrix(-0.7071 -0.7071 0.7071 -0.7071 2124.0173 1763.173)" class="st7" width="682.4" height="8.7"/>
				
					<rect x="1016" y="437.3" transform="matrix(-0.7071 -0.7071 0.7071 -0.7071 2004.5024 1713.6682)" class="st7" width="682.4" height="8.7"/>
				
					<rect x="946" y="437.3" transform="matrix(-0.7071 -0.7071 0.7071 -0.7071 1884.9855 1664.1637)" class="st7" width="682.4" height="8.7"/>
				
					<rect x="875.9" y="437.3" transform="matrix(-0.7071 -0.7071 0.7071 -0.7071 1765.4711 1614.66)" class="st7" width="682.4" height="8.7"/>
				
					<rect x="805.9" y="437.3" transform="matrix(-0.7071 -0.7071 0.7071 -0.7071 1645.9541 1565.1554)" class="st7" width="682.4" height="8.7"/>
				
					<rect x="735.9" y="437.3" transform="matrix(-0.7071 -0.7071 0.7071 -0.7071 1526.4395 1515.6498)" class="st7" width="682.4" height="8.7"/>
				
					<rect x="665.9" y="437.3" transform="matrix(-0.7071 -0.7071 0.7071 -0.7071 1406.9236 1466.1448)" class="st7" width="682.4" height="8.7"/>
				
					<rect x="595.9" y="437.3" transform="matrix(-0.7071 -0.7071 0.7071 -0.7071 1287.4077 1416.6404)" class="st7" width="682.4" height="8.7"/>
				
					<rect x="525.9" y="437.3" transform="matrix(-0.7071 -0.7071 0.7071 -0.7071 1167.8928 1367.135)" class="st7" width="682.4" height="8.7"/>
				
					<rect x="455.9" y="437.3" transform="matrix(-0.7071 -0.7071 0.7071 -0.7071 1048.3761 1317.6301)" class="st7" width="682.4" height="8.7"/>
				
					<rect x="385.9" y="437.3" transform="matrix(-0.7071 -0.7071 0.7071 -0.7071 928.8619 1268.1255)" class="st7" width="682.4" height="8.7"/>
				
					<rect x="315.9" y="437.3" transform="matrix(-0.7071 -0.7071 0.7071 -0.7071 809.3453 1218.62)" class="st7" width="682.4" height="8.7"/>
				
					<rect x="245.9" y="437.3" transform="matrix(-0.7071 -0.7071 0.7071 -0.7071 689.8304 1169.1152)" class="st7" width="682.4" height="8.7"/>
				
					<rect x="175.8" y="437.3" transform="matrix(-0.7071 -0.7071 0.7071 -0.7071 570.3145 1119.6097)" class="st7" width="682.4" height="8.7"/>
				
					<rect x="105.8" y="437.3" transform="matrix(-0.7071 -0.7071 0.7071 -0.7071 450.7993 1070.1052)" class="st7" width="682.4" height="8.7"/>
				
					<rect x="35.8" y="437.3" transform="matrix(-0.7071 -0.7071 0.7071 -0.7071 331.2835 1020.6002)" class="st7" width="682.4" height="8.7"/>
				
					<rect x="-34.2" y="437.3" transform="matrix(-0.7071 -0.7071 0.7071 -0.7071 211.7685 971.0954)" class="st7" width="682.4" height="8.7"/>
				
					<rect x="-104.2" y="437.3" transform="matrix(-0.7071 -0.7071 0.7071 -0.7071 92.2527 921.5903)" class="st7" width="682.4" height="8.7"/>
				
					<rect x="-174.2" y="437.3" transform="matrix(-0.7071 -0.7071 0.7071 -0.7071 -27.263 872.0852)" class="st7" width="682.4" height="8.7"/>
				
					<rect x="-244.2" y="437.3" transform="matrix(-0.7071 -0.7071 0.7071 -0.7071 -146.7784 822.5803)" class="st7" width="682.4" height="8.7"/>
				
					<rect x="-314.2" y="437.3" transform="matrix(-0.7071 -0.7071 0.7071 -0.7071 -266.2937 773.0753)" class="st7" width="682.4" height="8.7"/>
				
					<rect x="-384.2" y="437.3" transform="matrix(-0.7071 -0.7071 0.7071 -0.7071 -385.8096 723.5702)" class="st7" width="682.4" height="8.7"/>
				
					<rect x="-454.3" y="437.3" transform="matrix(-0.7071 -0.7071 0.7071 -0.7071 -505.3253 674.0651)" class="st7" width="682.4" height="8.7"/>
			</g>
			<g>
				
					<rect x="-454.3" y="437.3" transform="matrix(0.7071 -0.7071 0.7071 0.7071 -345.4351 49.4227)" class="st7" width="682.4" height="8.7"/>
				
					<rect x="-384.2" y="437.3" transform="matrix(0.7071 -0.7071 0.7071 0.7071 -324.9294 98.9278)" class="st7" width="682.4" height="8.7"/>
				
					<rect x="-314.2" y="437.3" transform="matrix(0.7071 -0.7071 0.7071 0.7071 -304.4235 148.4328)" class="st7" width="682.4" height="8.7"/>
				
					<rect x="-244.2" y="437.3" transform="matrix(0.7071 -0.7071 0.7071 0.7071 -283.918 197.9379)" class="st7" width="682.4" height="8.7"/>
				
					<rect x="-174.2" y="437.3" transform="matrix(0.7071 -0.7071 0.7071 0.7071 -263.4124 247.4427)" class="st7" width="682.4" height="8.7"/>
				
					<rect x="-104.2" y="437.3" transform="matrix(0.7071 -0.7071 0.7071 0.7071 -242.9067 296.9479)" class="st7" width="682.4" height="8.7"/>
				
					<rect x="-34.2" y="437.3" transform="matrix(0.7071 -0.7071 0.7071 0.7071 -222.4009 346.4527)" class="st7" width="682.4" height="8.7"/>
				
					<rect x="35.8" y="437.3" transform="matrix(0.7071 -0.7071 0.7071 0.7071 -201.8954 395.9578)" class="st7" width="682.4" height="8.7"/>
				
					<rect x="105.8" y="437.3" transform="matrix(0.7071 -0.7071 0.7071 0.7071 -181.3897 445.4628)" class="st7" width="682.4" height="8.7"/>
				
					<rect x="175.8" y="437.3" transform="matrix(0.7071 -0.7071 0.7071 0.7071 -160.8842 494.9677)" class="st7" width="682.4" height="8.7"/>
				
					<rect x="245.9" y="437.3" transform="matrix(0.7071 -0.7071 0.7071 0.7071 -140.3784 544.4724)" class="st7" width="682.4" height="8.7"/>
				
					<rect x="315.9" y="437.3" transform="matrix(0.7071 -0.7071 0.7071 0.7071 -119.8728 593.978)" class="st7" width="682.4" height="8.7"/>
				
					<rect x="385.9" y="437.3" transform="matrix(0.7071 -0.7071 0.7071 0.7071 -99.3679 643.4825)" class="st7" width="682.4" height="8.7"/>
				
					<rect x="455.9" y="437.3" transform="matrix(0.7071 -0.7071 0.7071 0.7071 -78.8622 692.9879)" class="st7" width="682.4" height="8.7"/>
				
					<rect x="525.9" y="437.3" transform="matrix(0.7071 -0.7071 0.7071 0.7071 -58.3565 742.493)" class="st7" width="682.4" height="8.7"/>
				
					<rect x="595.9" y="437.3" transform="matrix(0.7071 -0.7071 0.7071 0.7071 -37.8508 791.998)" class="st7" width="682.4" height="8.7"/>
				
					<rect x="665.9" y="437.3" transform="matrix(0.7071 -0.7071 0.7071 0.7071 -17.345 841.5033)" class="st7" width="682.4" height="8.7"/>
				
					<rect x="735.9" y="437.3" transform="matrix(0.7071 -0.7071 0.7071 0.7071 3.1602 891.0073)" class="st7" width="682.4" height="8.7"/>
				
					<rect x="805.9" y="437.3" transform="matrix(0.7071 -0.7071 0.7071 0.7071 23.6659 940.5125)" class="st7" width="682.4" height="8.7"/>
				
					<rect x="875.9" y="437.3" transform="matrix(0.7071 -0.7071 0.7071 0.7071 44.1716 990.0175)" class="st7" width="682.4" height="8.7"/>
				
					<rect x="946" y="437.3" transform="matrix(0.7071 -0.7071 0.7071 0.7071 64.6771 1039.5223)" class="st7" width="682.4" height="8.7"/>
				
					<rect x="1016" y="437.3" transform="matrix(0.7071 -0.7071 0.7071 0.7071 85.1834 1089.0286)" class="st7" width="682.4" height="8.7"/>
				
					<rect x="1086" y="437.3" transform="matrix(0.7071 -0.7071 0.7071 0.7071 105.6884 1138.5321)" class="st7" width="682.4" height="8.7"/>
				
					<rect x="1156" y="437.3" transform="matrix(0.7071 -0.7071 0.7071 0.7071 126.1947 1188.0385)" class="st7" width="682.4" height="8.7"/>
				
					<rect x="1226" y="437.3" transform="matrix(0.7071 -0.7071 0.7071 0.7071 146.6997 1237.5422)" class="st7" width="682.4" height="8.7"/>
				
					<rect x="1296" y="437.3" transform="matrix(0.7071 -0.7071 0.7071 0.7071 167.2053 1287.0472)" class="st7" width="682.4" height="8.7"/>
				
					<rect x="1366" y="437.3" transform="matrix(0.7071 -0.7071 0.7071 0.7071 187.7117 1336.5535)" class="st7" width="682.4" height="8.7"/>
				
					<rect x="1436" y="437.3" transform="matrix(0.7071 -0.7071 0.7071 0.7071 208.2166 1386.0571)" class="st7" width="682.4" height="8.7"/>
				
					<rect x="1506" y="437.3" transform="matrix(0.7071 -0.7071 0.7071 0.7071 228.7241 1435.5651)" class="st7" width="682.4" height="8.7"/>
				
					<rect x="1576.1" y="437.3" transform="matrix(0.7071 -0.7071 0.7071 0.7071 249.2278 1485.067)" class="st7" width="682.4" height="8.7"/>
				
					<rect x="1646.1" y="437.3" transform="matrix(0.7071 -0.7071 0.7071 0.7071 269.7335 1534.572)" class="st7" width="682.4" height="8.7"/>
				
					<rect x="1716.1" y="437.3" transform="matrix(0.7071 -0.7071 0.7071 0.7071 290.2392 1584.0771)" class="st7" width="682.4" height="8.7"/>
			</g>
		</g>
	</g>
	<rect x="381.2" y="148" class="st9" width="62.8" height="568.2"/>
	<rect x="424.2" y="673.8" class="st7" width="975.8" height="15.5"/>
	<g>
		<rect y="148" class="st10" width="395.7" height="832"/>
		<g>
			<rect x="110.8" y="443.5" class="st9" width="110.4" height="30.7"/>
			<rect y="283.8" class="st9" width="110.4" height="30.7"/>
			<rect x="221.2" y="380.7" class="st9" width="79.8" height="30.7"/>
		</g>
		<rect x="0" y="685.7" class="st3" width="1400" height="294.3"/>
		<g>
			<rect x="231.6" y="740.1" class="st11" width="936.8" height="21.8"/>
			<rect x="623.4" y="746.4" class="st12" width="42.6" height="7.5"/>
			<g>
				<g>
					<path class="st13" d="M1065.8,581.9c4.5,0,8.2-1.6,10.9-4.7c7.1-8.2,5.1-24.1,5-24.8l-3.9,0.5c0,0.1,1.9,14.8-4,21.7
						c-2,2.3-4.6,3.4-8,3.4V581.9z"/>
				</g>
				<g>
					<rect x="1065.8" y="496.1" class="st14" width="27.9" height="58.8"/>
					<rect x="1065.8" y="550.3" class="st15" width="27.9" height="4.6"/>
				</g>
				<g>
					<g>
						<rect x="1077" y="643" class="st16" width="22.1" height="111"/>
						<ellipse class="st13" cx="1099.7" cy="698.4" rx="48.6" ry="55.5"/>
						<ellipse class="st16" cx="1077" cy="698.4" rx="48.6" ry="55.5"/>
						<ellipse class="st16" cx="1077" cy="698.4" rx="29.5" ry="33.7"/>
						<ellipse class="st16" cx="1075" cy="698.4" rx="14.8" ry="16.8"/>
						<path class="st16" d="M1083.5,698.4c0,6.3-4.5,11.4-10,11.4c-5.5,0-10-5.1-10-11.4c0-6.3,4.5-11.4,10-11.4
							C1079,687.1,1083.5,692.2,1083.5,698.4z"/>
						<rect x="919.1" y="690.5" class="st16" width="180.6" height="19.4"/>
					</g>
					<g>
						<path class="st16" d="M1096.4,694.2c-2.1,0-4.1-1.4-4.7-3.5c-2.9-9.3-8.9-10.5-8.9-10.5c-2.7-0.4-4.6-2.9-4.2-5.6
							c0.4-2.7,2.9-4.6,5.6-4.2c0.5,0.1,12.1,2,16.9,17.3c0.8,2.6-0.6,5.4-3.2,6.2C1097.4,694.1,1096.9,694.2,1096.4,694.2z"/>
					</g>
				</g>
				<g>
					<g>
						<rect x="578.6" y="643" class="st16" width="29.5" height="111"/>
						<ellipse class="st13" cx="601.3" cy="698.4" rx="48.6" ry="55.5"/>
						<ellipse class="st16" cx="578.6" cy="698.4" rx="48.6" ry="55.5"/>
						<ellipse class="st16" cx="578.6" cy="698.4" rx="29.5" ry="33.7"/>
						<ellipse class="st16" cx="576.6" cy="698.4" rx="14.8" ry="16.8"/>
						<ellipse class="st16" cx="575.1" cy="698.4" rx="10" ry="11.4"/>
						<rect x="420.7" y="690.5" class="st16" width="180.6" height="19.4"/>
					</g>
					<g>
						<path class="st16" d="M598,694.2c-2.1,0-4.1-1.4-4.7-3.5c-2.9-9.3-8.9-10.5-8.9-10.5c-2.7-0.4-4.6-2.9-4.2-5.6
							c0.4-2.7,2.9-4.6,5.6-4.2c0.5,0.1,12.1,2,16.9,17.3c0.8,2.6-0.6,5.4-3.2,6.2C599,694.1,598.5,694.2,598,694.2z"/>
					</g>
				</g>
				<rect x="361.4" y="613.9" class="st16" width="132.5" height="84.6"/>
				<rect x="743.7" y="298.1" class="st17" width="232.8" height="396"/>
				<rect x="838.8" y="613.9" class="st16" width="159.5" height="84.6"/>
				<polygon class="st18" points="1082,565 905.8,565 886,415.7 1062.2,415.7 				"/>
				<polygon class="st7" points="1062.7,550.3 921.2,550.3 905.3,430.4 1046.8,430.4 				"/>
				<g>
					<g>
						<rect x="922.6" y="643" class="st16" width="24.9" height="111"/>
						<ellipse class="st16" cx="945.3" cy="698.4" rx="48.6" ry="55.5"/>
						<ellipse class="st13" cx="922.6" cy="698.4" rx="48.6" ry="55.5"/>
						<ellipse class="st19" cx="922.6" cy="698.4" rx="29.5" ry="33.7"/>
						<ellipse class="st13" cx="920.6" cy="698.4" rx="14.8" ry="16.8"/>
						<path class="st16" d="M929.1,698.4c0,6.3-4.5,11.4-10,11.4c-5.5,0-10-5.1-10-11.4c0-6.3,4.5-11.4,10-11.4
							C924.6,687.1,929.1,692.2,929.1,698.4z"/>
					</g>
					<g>
						<path class="st7" d="M942,694.2c-2.1,0-4.1-1.4-4.7-3.5c-2.9-9.3-8.9-10.5-8.9-10.5c-2.7-0.4-4.6-2.9-4.2-5.6
							c0.4-2.7,2.9-4.6,5.6-4.2c0.5,0.1,12.1,2,16.9,17.3c0.8,2.6-0.6,5.4-3.2,6.2C943,694.1,942.5,694.2,942,694.2z"/>
					</g>
				</g>
				<rect x="1028.4" y="594.8" class="st17" width="176.4" height="99.4"/>
				<path class="st14" d="M905.8,565L886,415.7H761.5v278.4h99.5c1.9-36.9,28.7-66.1,61.5-66.1c31.7,0,57.8,30.9,61.2,66.1h44.6
					v-99.4L905.8,565z"/>
				<polygon class="st17" points="905.8,565 1028.4,594.7 1204.8,594.8 1082,565 				"/>
				<polygon class="st20" points="743.7,694.2 761.5,694.2 761.5,415.7 743.7,435.5 				"/>
				<g>
					<g>
						<rect x="422.7" y="643" class="st16" width="21.4" height="111"/>
						<ellipse class="st16" cx="445.3" cy="698.4" rx="48.6" ry="55.5"/>
						<ellipse class="st13" cx="422.7" cy="698.4" rx="48.6" ry="55.5"/>
						<path class="st14" d="M278.7,298.1v396h82.8c3.5-35.1,29.5-66.1,61.2-66.1c31.7,0,57.8,31,61.2,66.1h259.8v-396H278.7z"/>
						<rect x="636.2" y="597.9" class="st20" width="71.3" height="91.1"/>
						<ellipse class="st19" cx="422.7" cy="698.4" rx="29.5" ry="33.7"/>
						<ellipse class="st13" cx="420.7" cy="698.4" rx="14.8" ry="16.8"/>
						<ellipse class="st16" cx="419.2" cy="698.4" rx="10" ry="11.4"/>
					</g>
					<g>
						<path class="st7" d="M442.1,694.2c-2.1,0-4.1-1.4-4.7-3.5c-2.9-9.3-8.9-10.5-8.9-10.5c-2.7-0.4-4.6-2.9-4.2-5.6
							c0.4-2.7,2.9-4.6,5.6-4.2c0.5,0.1,12.1,2,16.9,17.3c0.8,2.6-0.6,5.4-3.2,6.2C443.1,694.1,442.6,694.2,442.1,694.2z"/>
					</g>
				</g>
				<polygon class="st7" points="888.4,550.3 775.6,550.3 775.6,429.6 872.5,429.6 				"/>
				<rect x="273" y="690.5" class="st13" width="88.4" height="8"/>
				<rect x="483.6" y="690.5" class="st13" width="260.1" height="8"/>
				<rect x="743.7" y="690.5" class="st16" width="17.8" height="8"/>
				<rect x="761.5" y="690.5" class="st13" width="99.5" height="8"/>
				<rect x="982.5" y="690.5" class="st13" width="45.9" height="8"/>
				<rect x="1024.1" y="690.5" class="st21" width="185.8" height="8"/>
				<rect x="775.6" y="429.6" class="st18" width="12.6" height="120.7"/>
				<rect x="963" y="430.4" class="st14" width="13.5" height="119.9"/>
				<rect x="976.5" y="430.4" class="st18" width="14.1" height="119.9"/>
				<polygon class="st13" points="786,466.6 786,550.3 888.4,550.3 877.4,466.6 				"/>
				<polygon class="st16" points="801.2,466.6 786,466.6 786,550.3 812.4,550.3 				"/>
				<polygon class="st13" points="910.1,466.6 976.5,466.6 986.9,550.3 921.2,550.3 				"/>
				<g>
					<rect x="786" y="561.5" class="st20" width="26.1" height="18.8"/>
					<rect x="786" y="561.5" class="st13" width="26.1" height="11.2"/>
				</g>
				<polygon class="st20" points="909.1,629.8 905.8,630.7 905.8,565 909.1,565.8 				"/>
				<path class="st16" d="M955.8,522.1c10.4,0,18.8,8.4,18.8,18.8h7.9c0-14.8-12-26.7-26.7-26.7s-26.7,12-26.7,26.7h7.9
					C937,530.5,945.4,522.1,955.8,522.1z"/>
				<polygon class="st15" points="918.6,530.3 921.2,550.3 1062.7,550.3 1060,530 				"/>
				<g>
					<path class="st13" d="M875.1,581.9c-4.5,0-8.2-1.6-10.9-4.7c-7.1-8.2-5.1-24.1-5-24.8l3.9,0.5c0,0.1-1.9,14.8,4,21.7
						c2,2.3,4.6,3.4,8,3.4V581.9z"/>
				</g>
				<g>
					<rect x="852.2" y="496.1" class="st14" width="22.9" height="58.8"/>
					<rect x="847.2" y="496.1" class="st15" width="5" height="58.8"/>
					<rect x="847.2" y="550.3" class="st15" width="27.9" height="4.6"/>
				</g>
				<polygon class="st22" points="786,429.6 786,466.6 877.4,466.6 872.5,429.6 				"/>
				<polygon class="st22" points="905.3,430.4 910.1,466.6 963,466.6 963,430.4 				"/>
				<polygon class="st10" points="990.7,430.4 990.7,530 1060,530 1046.8,430.4 				"/>
				<rect x="1040.3" y="608.1" class="st15" width="38" height="40.3"/>
				<rect x="1150.3" y="608.1" class="st15" width="38" height="40.3"/>
				<rect x="1044.2" y="608.1" class="st2" width="38" height="40.3"/>
				<rect x="1154.2" y="608.1" class="st2" width="38" height="40.3"/>
				<rect x="1089.8" y="630.4" class="st13" width="54.2" height="5.9"/>
				<rect x="1089.8" y="643" class="st13" width="54.2" height="5.9"/>
				<rect x="1089.8" y="618.5" class="st13" width="54.2" height="5.9"/>
				<polygon class="st13" points="1028.4,690.5 982.5,690.5 998.3,664.8 1028.4,664.8 				"/>
				<rect x="1024.1" y="664.8" class="st21" width="185.8" height="25.7"/>
				<polygon class="st13" points="317.2,664.8 273,664.8 273,690.5 337.1,690.5 				"/>
				<rect x="273" y="298.1" class="st13" width="44.2" height="13.5"/>
				<rect x="716.2" y="298.1" class="st13" width="44.2" height="13.5"/>
				<rect x="961.9" y="298.1" class="st13" width="22.1" height="13.5"/>
				<g>
					<g>
						<rect x="762.4" y="331.6" class="st23" width="29.5" height="15"/>
						<rect x="762.4" y="326.8" class="st24" width="29.5" height="15"/>
					</g>
					<g>
						<rect x="929.1" y="331.6" class="st23" width="29.5" height="15"/>
						<rect x="929.1" y="326.8" class="st24" width="29.5" height="15"/>
					</g>
				</g>
				<rect x="305" y="326.8" class="st22" width="411.1" height="223.5"/>
				<rect x="305" y="341.8" class="st25" width="207.1" height="124.8"/>
				<polygon class="st18" points="716.2,341.8 601.3,378.8 601.3,363.8 716.2,326.8 				"/>
				<rect x="190.1" y="363.8" class="st14" width="411.1" height="15"/>
				<rect x="305" y="466.6" class="st13" width="411.1" height="83.7"/>
				<rect x="305" y="530.2" class="st16" width="411.1" height="20.1"/>
				<polygon class="st17" points="305,326.8 190.1,363.8 601.3,363.8 716.2,326.8 				"/>
				<g>
					<rect x="814.4" y="346.6" class="st16" width="94.5" height="69.1"/>
					<polygon class="st13" points="948.1,415.7 853.6,415.7 813.8,346.6 908.3,346.6 					"/>
				</g>
				<g>
					<rect x="326" y="450.2" class="st24" width="110.6" height="66.5"/>
					<rect x="455.3" y="450.2" class="st24" width="110.6" height="66.5"/>
					<rect x="584.7" y="450.2" class="st24" width="110.6" height="66.5"/>
					<g>
						<g>
							<g>
								<rect x="643" y="441.4" class="st14" width="28" height="38.5"/>
								<polygon class="st17" points="676.3,431.3 648.3,431.3 643,441.4 671,441.4 								"/>
								<polygon class="st18" points="676.3,431.3 671,441.4 671,479.9 681.5,479.9 681.5,441.4 								"/>
								<rect x="645.2" y="457.9" class="st24" width="23.7" height="19.5"/>
								<rect x="673.1" y="457.9" class="st24" width="6.7" height="19.5"/>
								<rect x="673.1" y="451.8" class="st26" width="6.7" height="2.8"/>
								<g>
									<circle class="st26" cx="657" cy="454.3" r="7.4"/>
									<circle class="st27" cx="657" cy="454.3" r="6.7"/>
									<circle class="st14" cx="657" cy="454.3" r="6"/>
									<circle class="st28" cx="657" cy="454.3" r="2.4"/>
									<g>
										<g>
											<path class="st27" d="M657.4,449.7c0,0.4-0.2,1.1-0.4,1.1c-0.2,0-0.4-0.7-0.4-1.1c0-0.4,0.2-0.3,0.4-0.3
												C657.2,449.3,657.4,449.3,657.4,449.7z"/>
											<path class="st27" d="M656.7,459c0-0.4,0.2-1.1,0.4-1.1c0.2,0,0.4,0.7,0.4,1.1c0,0.4-0.2,0.3-0.4,0.3
												C656.8,459.3,656.7,459.4,656.7,459z"/>
										</g>
										<g>
											<path class="st27" d="M661.7,454.7c-0.4,0-1.1-0.2-1.1-0.4c0-0.2,0.7-0.4,1.1-0.4c0.4,0,0.3,0.2,0.3,0.4
												C662,454.5,662.1,454.7,661.7,454.7z"/>
											<path class="st27" d="M652.3,454c0.4,0,1.1,0.2,1.1,0.4c0,0.2-0.7,0.4-1.1,0.4c-0.4,0-0.3-0.2-0.3-0.4
												C652,454.2,652,454,652.3,454z"/>
										</g>
									</g>
									<g>
										<g>
											<path class="st27" d="M660.6,451.3c-0.3,0.3-0.9,0.6-1,0.5c-0.1-0.1,0.2-0.7,0.5-1c0.3-0.3,0.3-0.1,0.5,0
												C660.7,450.9,660.9,451,660.6,451.3z"/>
											<path class="st27" d="M653.5,457.4c0.3-0.3,0.9-0.6,1-0.5c0.1,0.1-0.2,0.7-0.5,1c-0.3,0.3-0.3,0.1-0.5,0
												C653.4,457.7,653.2,457.7,653.5,457.4z"/>
										</g>
										<g>
											<path class="st27" d="M660.1,457.9c-0.3-0.3-0.6-0.9-0.5-1c0.1-0.1,0.7,0.2,1,0.5c0.3,0.3,0.1,0.3,0,0.5
												C660.4,458,660.4,458.2,660.1,457.9z"/>
											<path class="st27" d="M654,450.8c0.3,0.3,0.6,0.9,0.5,1c-0.1,0.1-0.7-0.2-1-0.5c-0.3-0.3-0.1-0.3,0-0.5
												C653.6,450.7,653.7,450.5,654,450.8z"/>
										</g>
									</g>
								</g>
								<rect x="648.3" y="425.4" class="st14" width="27.9" height="5.9"/>
							</g>
						</g>
						<g>
							<g>
								<rect x="599.6" y="441.4" class="st14" width="28" height="38.5"/>
								<polygon class="st17" points="632.8,431.3 604.8,431.3 599.6,441.4 627.6,441.4 								"/>
								<polygon class="st18" points="632.8,431.3 627.6,441.4 627.6,479.9 638,479.9 638,441.4 								"/>
								<rect x="601.7" y="457.9" class="st24" width="23.7" height="19.5"/>
								<rect x="629.7" y="457.9" class="st24" width="6.7" height="19.5"/>
								<rect x="629.7" y="451.8" class="st26" width="6.7" height="2.8"/>
								<g>
									<circle class="st26" cx="613.6" cy="454.3" r="7.4"/>
									<circle class="st27" cx="613.6" cy="454.3" r="6.7"/>
									<circle class="st14" cx="613.6" cy="454.3" r="6"/>
									<circle class="st28" cx="613.6" cy="454.3" r="2.4"/>
									<g>
										<g>
											<path class="st27" d="M613.9,449.7c0,0.4-0.2,1.1-0.4,1.1c-0.2,0-0.4-0.7-0.4-1.1c0-0.4,0.2-0.3,0.4-0.3
												C613.8,449.3,613.9,449.3,613.9,449.7z"/>
											<path class="st27" d="M613.2,459c0-0.4,0.2-1.1,0.4-1.1c0.2,0,0.4,0.7,0.4,1.1c0,0.4-0.2,0.3-0.4,0.3
												C613.4,459.3,613.2,459.4,613.2,459z"/>
										</g>
										<g>
											<path class="st27" d="M618.3,454.7c-0.4,0-1.1-0.2-1.1-0.4c0-0.2,0.7-0.4,1.1-0.4c0.4,0,0.3,0.2,0.3,0.4
												C618.6,454.5,618.7,454.7,618.3,454.7z"/>
											<path class="st27" d="M608.9,454c0.4,0,1.1,0.2,1.1,0.4c0,0.2-0.7,0.4-1.1,0.4c-0.4,0-0.3-0.2-0.3-0.4
												C608.6,454.2,608.5,454,608.9,454z"/>
										</g>
									</g>
									<g>
										<g>
											<path class="st27" d="M617.2,451.3c-0.3,0.3-0.9,0.6-1,0.5c-0.1-0.1,0.2-0.7,0.5-1c0.3-0.3,0.3-0.1,0.5,0
												C617.3,450.9,617.4,451,617.2,451.3z"/>
											<path class="st27" d="M610,457.4c0.3-0.3,0.9-0.6,1-0.5c0.1,0.1-0.2,0.7-0.5,1c-0.3,0.3-0.3,0.1-0.5,0
												C609.9,457.7,609.7,457.7,610,457.4z"/>
										</g>
										<g>
											<path class="st27" d="M616.7,457.9c-0.3-0.3-0.6-0.9-0.5-1c0.1-0.1,0.7,0.2,1,0.5c0.3,0.3,0.1,0.3,0,0.5
												C617,458,616.9,458.2,616.7,457.9z"/>
											<path class="st27" d="M610.5,450.8c0.3,0.3,0.6,0.9,0.5,1c-0.1,0.1-0.7-0.2-1-0.5c-0.3-0.3-0.1-0.3,0-0.5
												C610.2,450.7,610.2,450.5,610.5,450.8z"/>
										</g>
									</g>
								</g>
								<rect x="604.9" y="425.4" class="st14" width="27.9" height="5.9"/>
							</g>
						</g>
					</g>
				</g>
				<g>
					<rect x="326" y="496.1" class="st23" width="110.6" height="20.6"/>
					<rect x="455.3" y="496.1" class="st23" width="110.6" height="20.6"/>
					<rect x="584.7" y="496.1" class="st23" width="110.6" height="20.6"/>
				</g>
				<g>
					<polygon class="st23" points="707.5,597.9 586.9,597.9 550,753.9 670.5,753.9 					"/>
					<polygon class="st24" points="700.1,597.9 579.6,597.9 542.6,753.9 663.1,753.9 					"/>
				</g>
				<polygon class="st13" points="716.2,550.3 707.1,550.3 592.2,378.8 601.3,378.8 				"/>
				<polygon class="st13" points="314.1,550.3 305,550.3 190.1,378.8 199.2,378.8 				"/>
			</g>
		</g>
		<rect y="819.2" class="st7" width="1400" height="13.6"/>
		<rect x="693.2" y="826" class="st7" width="13.6" height="154"/>
		<g>
			<polygon class="st11" points="947,892.3 889.3,879.7 889.3,892.3 947,892.3 			"/>
			<circle class="st29" cx="889.3" cy="834.6" r="57.6"/>
			<g>
				<g>
					<defs>
						<circle id="SVGID_3_" cx="889.3" cy="834.6" r="57.6"/>
					</defs>
					<clipPath id="SVGID_4_">
						<use xlink:href="#SVGID_3_"  style="overflow:visible;"/>
					</clipPath>
					<g class="st30">
						<path class="st11" d="M871.9,735.7c-22.5-22.5-59-22.5-81.5,0c-22.5,22.5-22.5,59,0,81.5c22.5,22.5,59,22.5,81.5,0
							C894.4,794.7,894.4,758.2,871.9,735.7z M794.6,813c-20.2-20.2-20.2-52.9,0-73.1c20.2-20.2,52.9-20.2,73.1,0
							c20.2,20.2,20.2,52.9,0,73.1C847.5,833.2,814.8,833.2,794.6,813z"/>
						<path class="st11" d="M988.3,852.1c-22.5-22.5-59-22.5-81.5,0c-22.5,22.5-22.5,59,0,81.5c22.5,22.5,59,22.5,81.5,0
							C1010.8,911.1,1010.8,874.6,988.3,852.1z M910.9,929.4c-20.2-20.2-20.2-52.9,0-73.1c20.2-20.2,52.9-20.2,73.1,0
							c20.2,20.2,20.2,52.9,0,73.1C963.9,949.6,931.1,949.6,910.9,929.4z"/>
					</g>
					
						<rect x="886.6" y="769.5" transform="matrix(0.7071 0.7071 -0.7071 0.7071 850.1648 -385.541)" class="st31" width="7.8" height="128"/>
				</g>
			</g>
		</g>
	</g>
	<path class="st2" d="M118.8,109.5h225.5l-33.9-5.8c0,0-17.2-14.7-28.1-4.5c0,0-16.6-16-21.7-6.4c0,0-0.6-21.7-12.1-16
		c0,0,2.6-33.9-22.4-24.9c0,0-24.3,4.2-22.4,28c0,0-8.9-11.6-9.6,0c0,0-20.4-8.8-21.7,13.5c0,0-13.4-1.9-11.5,7
		c0,0-13.4-5.7-15.3,3.8L118.8,109.5z"/>
	<g>
		<g>
			<g>
				<rect x="384.9" y="441.4" class="st14" width="28" height="38.5"/>
				<polygon class="st17" points="418.1,431.3 390.1,431.3 384.9,441.4 412.9,441.4 				"/>
				<polygon class="st18" points="418.1,431.3 412.9,441.4 412.9,479.9 423.3,479.9 423.3,441.4 				"/>
				<rect x="387" y="457.9" class="st24" width="23.7" height="19.5"/>
				<rect x="415" y="457.9" class="st24" width="6.7" height="19.5"/>
				<rect x="415" y="451.8" class="st26" width="6.7" height="2.8"/>
				<g>
					<circle class="st26" cx="398.9" cy="454.3" r="7.4"/>
					<circle class="st27" cx="398.9" cy="454.3" r="6.7"/>
					<circle class="st14" cx="398.9" cy="454.3" r="6"/>
					<circle class="st28" cx="398.9" cy="454.3" r="2.4"/>
					<g>
						<g>
							<path class="st27" d="M399.2,449.7c0,0.4-0.2,1.1-0.4,1.1c-0.2,0-0.4-0.7-0.4-1.1c0-0.4,0.2-0.3,0.4-0.3
								C399.1,449.3,399.2,449.3,399.2,449.7z"/>
							<path class="st27" d="M398.5,459c0-0.4,0.2-1.1,0.4-1.1c0.2,0,0.4,0.7,0.4,1.1c0,0.4-0.2,0.3-0.4,0.3
								C398.7,459.3,398.5,459.4,398.5,459z"/>
						</g>
						<g>
							<path class="st27" d="M403.6,454.7c-0.4,0-1.1-0.2-1.1-0.4c0-0.2,0.7-0.4,1.1-0.4c0.4,0,0.3,0.2,0.3,0.4
								C403.9,454.5,403.9,454.7,403.6,454.7z"/>
							<path class="st27" d="M394.2,454c0.4,0,1.1,0.2,1.1,0.4c0,0.2-0.7,0.4-1.1,0.4c-0.4,0-0.3-0.2-0.3-0.4
								C393.9,454.2,393.8,454,394.2,454z"/>
						</g>
					</g>
					<g>
						<g>
							<path class="st27" d="M402.4,451.3c-0.3,0.3-0.9,0.6-1,0.5c-0.1-0.1,0.2-0.7,0.5-1c0.3-0.3,0.3-0.1,0.5,0
								C402.5,450.9,402.7,451,402.4,451.3z"/>
							<path class="st27" d="M395.3,457.4c0.3-0.3,0.9-0.6,1-0.5c0.1,0.1-0.2,0.7-0.5,1c-0.3,0.3-0.3,0.1-0.5,0
								C395.2,457.7,395,457.7,395.3,457.4z"/>
						</g>
						<g>
							<path class="st27" d="M401.9,457.9c-0.3-0.3-0.6-0.9-0.5-1c0.1-0.1,0.7,0.2,1,0.5c0.3,0.3,0.1,0.3,0,0.5
								C402.3,458,402.2,458.2,401.9,457.9z"/>
							<path class="st27" d="M395.8,450.8c0.3,0.3,0.6,0.9,0.5,1c-0.1,0.1-0.7-0.2-1-0.5c-0.3-0.3-0.1-0.3,0-0.5
								C395.5,450.7,395.5,450.5,395.8,450.8z"/>
						</g>
					</g>
				</g>
				<rect x="390.2" y="425.4" class="st14" width="27.9" height="5.9"/>
			</g>
		</g>
		<g>
			<g>
				<rect x="341.4" y="441.4" class="st14" width="28" height="38.5"/>
				<polygon class="st17" points="374.6,431.3 346.7,431.3 341.4,441.4 369.4,441.4 				"/>
				<polygon class="st18" points="374.6,431.3 369.4,441.4 369.4,479.9 379.9,479.9 379.9,441.4 				"/>
				<rect x="343.6" y="457.9" class="st24" width="23.7" height="19.5"/>
				<rect x="371.5" y="457.9" class="st24" width="6.7" height="19.5"/>
				<rect x="371.5" y="451.8" class="st26" width="6.7" height="2.8"/>
				<g>
					<circle class="st26" cx="355.4" cy="454.3" r="7.4"/>
					<circle class="st27" cx="355.4" cy="454.3" r="6.7"/>
					<circle class="st14" cx="355.4" cy="454.3" r="6"/>
					<circle class="st28" cx="355.4" cy="454.3" r="2.4"/>
					<g>
						<g>
							<path class="st27" d="M355.8,449.7c0,0.4-0.2,1.1-0.4,1.1c-0.2,0-0.4-0.7-0.4-1.1c0-0.4,0.2-0.3,0.4-0.3
								C355.6,449.3,355.8,449.3,355.8,449.7z"/>
							<path class="st27" d="M355.1,459c0-0.4,0.2-1.1,0.4-1.1c0.2,0,0.4,0.7,0.4,1.1c0,0.4-0.2,0.3-0.4,0.3
								C355.2,459.3,355.1,459.4,355.1,459z"/>
						</g>
						<g>
							<path class="st27" d="M360.1,454.7c-0.4,0-1.1-0.2-1.1-0.4c0-0.2,0.7-0.4,1.1-0.4c0.4,0,0.3,0.2,0.3,0.4
								C360.4,454.5,360.5,454.7,360.1,454.7z"/>
							<path class="st27" d="M350.7,454c0.4,0,1.1,0.2,1.1,0.4c0,0.2-0.7,0.4-1.1,0.4c-0.4,0-0.3-0.2-0.3-0.4
								C350.4,454.2,350.4,454,350.7,454z"/>
						</g>
					</g>
					<g>
						<g>
							<path class="st27" d="M359,451.3c-0.3,0.3-0.9,0.6-1,0.5c-0.1-0.1,0.2-0.7,0.5-1c0.3-0.3,0.3-0.1,0.5,0
								C359.1,450.9,359.3,451,359,451.3z"/>
							<path class="st27" d="M351.9,457.4c0.3-0.3,0.9-0.6,1-0.5c0.1,0.1-0.2,0.7-0.5,1c-0.3,0.3-0.3,0.1-0.5,0
								C351.8,457.7,351.6,457.7,351.9,457.4z"/>
						</g>
						<g>
							<path class="st27" d="M358.5,457.9c-0.3-0.3-0.6-0.9-0.5-1c0.1-0.1,0.7,0.2,1,0.5c0.3,0.3,0.1,0.3,0,0.5
								C358.8,458,358.8,458.2,358.5,457.9z"/>
							<path class="st27" d="M352.4,450.8c0.3,0.3,0.6,0.9,0.5,1c-0.1,0.1-0.7-0.2-1-0.5c-0.3-0.3-0.1-0.3,0-0.5
								C352,450.7,352.1,450.5,352.4,450.8z"/>
						</g>
					</g>
				</g>
				<rect x="346.7" y="425.4" class="st14" width="27.9" height="5.9"/>
			</g>
		</g>
	</g>
	<g>
		<g>
			<g>
				<rect x="513.1" y="441.4" class="st14" width="28" height="38.5"/>
				<polygon class="st17" points="546.3,431.3 518.3,431.3 513.1,441.4 541.1,441.4 				"/>
				<polygon class="st18" points="546.3,431.3 541.1,441.4 541.1,479.9 551.6,479.9 551.6,441.4 				"/>
				<rect x="515.3" y="457.9" class="st24" width="23.7" height="19.5"/>
				<rect x="543.2" y="457.9" class="st24" width="6.7" height="19.5"/>
				<rect x="543.2" y="451.8" class="st26" width="6.7" height="2.8"/>
				<g>
					<circle class="st26" cx="527.1" cy="454.3" r="7.4"/>
					<circle class="st27" cx="527.1" cy="454.3" r="6.7"/>
					<circle class="st14" cx="527.1" cy="454.3" r="6"/>
					<circle class="st28" cx="527.1" cy="454.3" r="2.4"/>
					<g>
						<g>
							<path class="st27" d="M527.5,449.7c0,0.4-0.2,1.1-0.4,1.1c-0.2,0-0.4-0.7-0.4-1.1c0-0.4,0.2-0.3,0.4-0.3
								C527.3,449.3,527.5,449.3,527.5,449.7z"/>
							<path class="st27" d="M526.8,459c0-0.4,0.2-1.1,0.4-1.1c0.2,0,0.4,0.7,0.4,1.1c0,0.4-0.2,0.3-0.4,0.3
								C526.9,459.3,526.8,459.4,526.8,459z"/>
						</g>
						<g>
							<path class="st27" d="M531.8,454.7c-0.4,0-1.1-0.2-1.1-0.4c0-0.2,0.7-0.4,1.1-0.4c0.4,0,0.3,0.2,0.3,0.4
								C532.1,454.5,532.2,454.7,531.8,454.7z"/>
							<path class="st27" d="M522.4,454c0.4,0,1.1,0.2,1.1,0.4c0,0.2-0.7,0.4-1.1,0.4c-0.4,0-0.3-0.2-0.3-0.4
								C522.1,454.2,522,454,522.4,454z"/>
						</g>
					</g>
					<g>
						<g>
							<path class="st27" d="M530.7,451.3c-0.3,0.3-0.9,0.6-1,0.5c-0.1-0.1,0.2-0.7,0.5-1c0.3-0.3,0.3-0.1,0.5,0
								C530.8,450.9,530.9,451,530.7,451.3z"/>
							<path class="st27" d="M523.5,457.4c0.3-0.3,0.9-0.6,1-0.5c0.1,0.1-0.2,0.7-0.5,1c-0.3,0.3-0.3,0.1-0.5,0
								C523.4,457.7,523.3,457.7,523.5,457.4z"/>
						</g>
						<g>
							<path class="st27" d="M530.2,457.9c-0.3-0.3-0.6-0.9-0.5-1c0.1-0.1,0.7,0.2,1,0.5c0.3,0.3,0.1,0.3,0,0.5
								C530.5,458,530.4,458.2,530.2,457.9z"/>
							<path class="st27" d="M524,450.8c0.3,0.3,0.6,0.9,0.5,1c-0.1,0.1-0.7-0.2-1-0.5c-0.3-0.3-0.1-0.3,0-0.5
								C523.7,450.7,523.8,450.5,524,450.8z"/>
						</g>
					</g>
				</g>
				<rect x="518.4" y="425.4" class="st14" width="27.9" height="5.9"/>
			</g>
		</g>
		<g>
			<g>
				<rect x="469.7" y="441.4" class="st14" width="28" height="38.5"/>
				<polygon class="st17" points="502.9,431.3 474.9,431.3 469.7,441.4 497.7,441.4 				"/>
				<polygon class="st18" points="502.9,431.3 497.7,441.4 497.7,479.9 508.1,479.9 508.1,441.4 				"/>
				<rect x="471.8" y="457.9" class="st24" width="23.7" height="19.5"/>
				<rect x="499.8" y="457.9" class="st24" width="6.7" height="19.5"/>
				<rect x="499.8" y="451.8" class="st26" width="6.7" height="2.8"/>
				<g>
					<circle class="st26" cx="483.7" cy="454.3" r="7.4"/>
					<circle class="st27" cx="483.7" cy="454.3" r="6.7"/>
					<circle class="st14" cx="483.7" cy="454.3" r="6"/>
					<circle class="st28" cx="483.7" cy="454.3" r="2.4"/>
					<g>
						<g>
							<path class="st27" d="M484,449.7c0,0.4-0.2,1.1-0.4,1.1c-0.2,0-0.4-0.7-0.4-1.1c0-0.4,0.2-0.3,0.4-0.3
								C483.9,449.3,484,449.3,484,449.7z"/>
							<path class="st27" d="M483.3,459c0-0.4,0.2-1.1,0.4-1.1c0.2,0,0.4,0.7,0.4,1.1c0,0.4-0.2,0.3-0.4,0.3
								C483.5,459.3,483.3,459.4,483.3,459z"/>
						</g>
						<g>
							<path class="st27" d="M488.4,454.7c-0.4,0-1.1-0.2-1.1-0.4c0-0.2,0.7-0.4,1.1-0.4c0.4,0,0.3,0.2,0.3,0.4
								C488.7,454.5,488.7,454.7,488.4,454.7z"/>
							<path class="st27" d="M479,454c0.4,0,1.1,0.2,1.1,0.4c0,0.2-0.7,0.4-1.1,0.4c-0.4,0-0.3-0.2-0.3-0.4
								C478.7,454.2,478.6,454,479,454z"/>
						</g>
					</g>
					<g>
						<g>
							<path class="st27" d="M487.2,451.3c-0.3,0.3-0.9,0.6-1,0.5c-0.1-0.1,0.2-0.7,0.5-1c0.3-0.3,0.3-0.1,0.5,0
								C487.3,450.9,487.5,451,487.2,451.3z"/>
							<path class="st27" d="M480.1,457.4c0.3-0.3,0.9-0.6,1-0.5c0.1,0.1-0.2,0.7-0.5,1c-0.3,0.3-0.3,0.1-0.5,0
								C480,457.7,479.8,457.7,480.1,457.4z"/>
						</g>
						<g>
							<path class="st27" d="M486.7,457.9c-0.3-0.3-0.6-0.9-0.5-1c0.1-0.1,0.7,0.2,1,0.5c0.3,0.3,0.1,0.3,0,0.5
								C487.1,458,487,458.2,486.7,457.9z"/>
							<path class="st27" d="M480.6,450.8c0.3,0.3,0.6,0.9,0.5,1c-0.1,0.1-0.7-0.2-1-0.5c-0.3-0.3-0.1-0.3,0-0.5
								C480.3,450.7,480.3,450.5,480.6,450.8z"/>
						</g>
					</g>
				</g>
				<rect x="474.9" y="425.4" class="st14" width="27.9" height="5.9"/>
			</g>
		</g>
	</g>
</g>
</svg>
